<?xml version="1.0" encoding="utf-8"?>
<!-- Generator: Adobe Illustrator 16.0.0, SVG Export Plug-In . SVG Version: 6.00 Build 0)  -->
<!DOCTYPE svg PUBLIC "-//W3C//DTD SVG 1.1//EN" "http://www.w3.org/Graphics/SVG/1.1/DTD/svg11.dtd">
<svg version="1.1" xmlns="http://www.w3.org/2000/svg" xmlns:xlink="http://www.w3.org/1999/xlink" x="0px" y="0px" width="566px"
	 height="191.227px" viewBox="0 0 566 191.227" enable-background="new 0 0 566 191.227" xml:space="preserve">
<g id="Layer_1" display="none">
</g>
<g id="Layer_2">
	<g>
		<path fill="#F1F1F2" d="M25.366,95.179c-3.291-4.659-9.718-14.976-9.718-28.3c0-14.917,7.043-29.079,19.834-39.876
			C47.81,16.595,64.374,10.253,82.193,9.102c0.382-0.126,0.784-0.193,1.199-0.193c0.917,0,1.833,0.009,2.749,0.022
			c4.024-0.086,8.136,0.097,12.17,0.55c31.233,2.3,58.613,10.646,59.765,11l2.439,0.75l0.061,2.552
			c0.011,0.45,1.062,45.31,1.097,66.202c0.07,40.624-17.866,63.317-32.927,75.202C112.423,178.069,85.4,182.092,85.4,182.092
			c1.297-0.942-31.601-8.368-48.447-31.881C25.82,134.672,30.404,102.313,25.366,95.179z"/>
		<path fill="#034976" d="M153.333,66.879c0-28.743-28.215-52.28-63.965-54.286c-0.065-0.091-0.144-0.142-0.236-0.142
			c-0.92,0-1.841,0.01-2.761,0.024c-0.651-0.015-1.305-0.024-1.96-0.024c-3.351,0-6.646,0.193-9.87,0.559
			C43.319,15.299,15.49,23.867,15.49,23.867s-1.06,45.03-1.096,66.125c-0.131,75.888,63.255,87.913,63.255,87.913
			s-2.121-2.28-7.032-6.105c-6.81-5.304-11.188-13.58-11.188-22.879c0-3.716,0.703-7.266,1.978-10.531
			c2.653-6.8,7.796-12.353,14.313-15.533c1.025-0.501,6.718-1.843,8.354-1.843c30.552,0,56.457-15.701,65.493-37.441
			c2.481-11.421,2.82-11.13,0.34,0.292C152.128,78.519,153.333,72.811,153.333,66.879z"/>
		<path fill="#D3E3DF" d="M87.124,182.092c0,0-27.021-4.022-43.347-16.904c-15.06-11.885-32.996-34.578-32.926-75.202
			c0.036-20.892,1.087-65.752,1.097-66.202l0.061-2.552l2.439-0.75c1.151-0.355,28.532-8.701,59.765-11
			c4.034-0.453,8.146-0.636,12.17-0.55c0.916-0.014,1.833-0.022,2.749-0.022c0.415,0,0.818,0.067,1.198,0.193
			c17.821,1.151,34.385,7.494,46.713,17.901c12.789,10.797,19.833,24.959,19.833,39.876c0,13.324-6.428,23.641-9.717,28.3
			c-12.663,17.93-36.564,29.377-63.086,29.377c-1.087,0.018-5.786,1.086-6.848,1.507c-5.748,2.82-10.193,7.652-12.52,13.614
			c-1.151,2.95-1.735,6.06-1.735,9.243C62.971,171.874,84.97,180.525,87.124,182.092z M18.972,26.544
			c-0.224,9.891-1.005,45.544-1.035,63.454c-0.053,30.33,10.118,53.756,30.23,69.627c4.998,3.944,9.999,6.899,14.452,9.09
			c-4.221-5.487-6.733-12.353-6.733-19.795c0-4.068,0.747-8.045,2.22-11.819c2.981-7.64,8.685-13.829,16.059-17.428
			c1.555-0.758,7.739-2.202,9.909-2.202c26.95,0,50.808-12.713,60.7-31.978c2.614-5.088,5.352-16.405,4.874-21.988
			c-2.143-25.042-27.935-45.549-60.479-47.375l-1.702-0.126c-0.347,0.003-0.694,0.008-1.041,0.014l-0.065,0l-0.067-0.001
			c-3.755-0.085-7.589,0.087-11.354,0.513l-0.139,0.013C49.576,18.392,26.369,24.461,18.972,26.544z"/>
		<path fill="#FFFFFF" d="M149.277,72.821c0.776-9.458-1.222-17.93-8.339-25.756c-2.187-2.151-4.535-4.136-7.028-5.935
			c-9.873-7.121-21.994-11.318-35.096-11.318c-13.209,0-25.419,4.267-35.334,11.493c-0.384,0.279-0.766,0.563-1.142,0.853
			l2.482,5.265c-2.379,0.108-2.277,0.223-4.194,0.618c-2.406,0.497-4.679,1.159-6.762,2.001c-8.501,3.438-13.817,9.906-11.967,20.59
			c0.141,0.812,0.318,1.645,0.544,2.505c0.032,0.128,0.067,0.251,0.102,0.377c5.225-5.098,12.362-8.244,20.237-8.244
			c16.009,0,28.985,12.977,28.985,28.984c0,12.433-7.822,20.098-13.884,24.015c1.607,0.089,3.23,0.137,4.867,0.137
			C126.43,118.407,147.955,88.928,149.277,72.821z"/>
	</g>
	<g>
		<g>
			<path fill="#141414" d="M176.716,165.375v-9.58c0-4.887,1.18-8.464,3.533-10.729c2.355-2.266,5.513-3.399,9.472-3.399
				c2.498,0,4.701,0.465,6.609,1.393c1.908,0.927,3.38,2.248,4.414,3.959c1.035,1.713,1.553,3.693,1.553,5.941v0.16h-3.906v-0.16
				c0-2.391-0.777-4.281-2.327-5.672c-1.554-1.392-3.668-2.088-6.343-2.088c-2.961,0-5.217,0.838-6.769,2.515
				c-1.553,1.676-2.328,4.423-2.328,8.242v9.632c0,6.886,3.05,10.328,9.149,10.328c2.678,0,4.781-0.687,6.315-2.06
				c1.533-1.374,2.302-3.255,2.302-5.645v-0.215h3.8v0.215c0,3.46-1.124,6.207-3.372,8.241c-2.246,2.034-5.28,3.051-9.098,3.051
				c-3.959,0-7.116-1.133-9.472-3.399C177.896,173.838,176.716,170.261,176.716,165.375z"/>
			<path fill="#141414" d="M221.137,179.074h-3.905v-15.519l-11.025-21.405h4.227l8.724,17.712l8.777-17.712h4.228l-11.024,21.459
				V179.074z"/>
			<path fill="#141414" d="M261.863,168.96c0,3.175-0.999,5.654-2.997,7.438c-1.997,1.784-4.727,2.676-8.187,2.676h-13.86V142.15
				h13.539c3.462,0,6.145,0.847,8.054,2.542c1.909,1.694,2.863,4.094,2.863,7.196c0,1.892-0.5,3.586-1.498,5.084
				c-1,1.498-2.393,2.534-4.174,3.104c2.068,0.642,3.629,1.731,4.682,3.264C261.338,164.875,261.863,166.748,261.863,168.96z
				 M240.726,158.471h9.205c2.318,0,4.139-0.525,5.457-1.578c1.321-1.053,1.98-2.65,1.98-4.79c0-2.14-0.642-3.754-1.925-4.844
				c-1.287-1.087-3.104-1.632-5.459-1.632h-9.259V158.471z M257.958,168.692c0-2.211-0.67-3.888-2.006-5.029
				c-1.34-1.143-3.238-1.713-5.7-1.713h-9.526v13.646h9.472c2.462,0,4.372-0.588,5.727-1.765
				C257.28,172.652,257.958,170.939,257.958,168.692z"/>
			<path fill="#141414" d="M273.588,158.525h15.84v3.532h-15.84v13.484h18.516v3.533H269.68V142.15h22.424v3.532h-18.516V158.525z"
				/>
			<path fill="#141414" d="M302.862,162.86v16.214h-3.905V142.15h13.7c3.459,0,6.179,0.9,8.159,2.702s2.97,4.361,2.97,7.68
				c0,2.639-0.695,4.816-2.087,6.529c-1.391,1.711-3.335,2.853-5.832,3.425l8.723,16.589h-4.496l-8.349-16.214H302.862z
				 M312.335,159.487c2.39,0,4.244-0.597,5.566-1.792c1.317-1.196,1.98-2.899,1.98-5.11c0-2.284-0.651-4.006-1.954-5.165
				c-1.303-1.16-3.167-1.739-5.593-1.739h-9.473v13.805H312.335z"/>
			<path fill="#141414" d="M328.499,168.638h3.854c0.5,4.888,3.426,7.332,8.777,7.332c2.782,0,4.896-0.588,6.341-1.766
				c1.444-1.177,2.167-2.891,2.167-5.138c0-2.032-0.571-3.567-1.712-4.602c-1.143-1.034-2.872-1.748-5.191-2.14l-4.174-0.695
				c-2.996-0.5-5.297-1.526-6.902-3.078c-1.605-1.553-2.409-3.737-2.409-6.555c0-3.247,1.089-5.78,3.265-7.599
				s5.048-2.729,8.616-2.729c3.282,0,5.966,0.848,8.052,2.542c2.088,1.694,3.328,4.272,3.721,7.732h-3.854
				c-0.428-4.603-3.085-6.904-7.974-6.904c-2.532,0-4.503,0.598-5.912,1.793c-1.41,1.194-2.114,2.828-2.114,4.896
				c0,1.819,0.543,3.238,1.632,4.254s2.739,1.722,4.95,2.114l4.281,0.75c3.104,0.536,5.477,1.605,7.117,3.211
				c1.641,1.605,2.462,3.871,2.462,6.796c0,3.354-1.124,5.948-3.371,7.786c-2.247,1.836-5.333,2.755-9.259,2.755
				c-3.71,0-6.618-0.908-8.723-2.729C330.034,174.846,328.822,172.171,328.499,168.638z"/>
			<path fill="#141414" d="M364.143,158.525h15.84v3.532h-15.84v13.484h18.516v3.533h-22.422V142.15h22.422v3.532h-18.516V158.525z"
				/>
			<path fill="#141414" d="M388.762,165.375v-9.58c0-4.887,1.178-8.464,3.533-10.729c2.354-2.266,5.512-3.399,9.471-3.399
				c2.498,0,4.7,0.465,6.609,1.393c1.909,0.927,3.382,2.248,4.415,3.959c1.033,1.713,1.552,3.693,1.552,5.941v0.16h-3.906v-0.16
				c0-2.391-0.776-4.281-2.327-5.672c-1.553-1.392-3.667-2.088-6.343-2.088c-2.96,0-5.215,0.838-6.769,2.515
				c-1.552,1.676-2.328,4.423-2.328,8.242v9.632c0,6.886,3.051,10.328,9.151,10.328c2.676,0,4.779-0.687,6.315-2.06
				c1.533-1.374,2.3-3.255,2.3-5.645v-0.215h3.8v0.215c0,3.46-1.124,6.207-3.372,8.241c-2.247,2.034-5.28,3.051-9.098,3.051
				c-3.959,0-7.117-1.133-9.471-3.399C389.939,173.838,388.762,170.261,388.762,165.375z"/>
			<path fill="#141414" d="M423.818,173.456c-1.106-1.892-1.661-4.032-1.661-6.421V142.15h3.96v24.562
				c0,2.82,0.795,5.058,2.382,6.716c1.589,1.66,3.72,2.488,6.396,2.488c2.64,0,4.762-0.829,6.368-2.488
				c1.605-1.658,2.407-3.896,2.407-6.716V142.15h3.906v24.884c0,2.426-0.544,4.575-1.634,6.447
				c-1.085,1.873-2.594,3.328-4.521,4.361c-1.927,1.035-4.103,1.552-6.527,1.552c-2.427,0-4.602-0.517-6.53-1.552
				C426.44,176.809,424.923,175.346,423.818,173.456z"/>
			<path fill="#141414" d="M460.05,162.86v16.214h-3.904V142.15h13.698c3.46,0,6.18,0.9,8.159,2.702
				c1.98,1.802,2.971,4.361,2.971,7.68c0,2.639-0.695,4.816-2.088,6.529c-1.391,1.711-3.335,2.853-5.832,3.425l8.724,16.589h-4.497
				l-8.348-16.214H460.05z M469.522,159.487c2.39,0,4.245-0.597,5.565-1.792c1.318-1.196,1.98-2.899,1.98-5.11
				c0-2.284-0.652-4.006-1.954-5.165c-1.302-1.16-3.166-1.739-5.592-1.739h-9.473v13.805H469.522z"/>
			<path fill="#141414" d="M492.535,142.15v36.924h-3.904V142.15H492.535z"/>
			<path fill="#141414" d="M512.07,145.682v33.392h-3.853v-33.392h-10.542v-3.532h24.937v3.532H512.07z"/>
			<path fill="#141414" d="M538.352,179.074h-3.909v-15.519L523.42,142.15h4.228l8.723,17.712l8.774-17.712h4.229l-11.021,21.459
				V179.074z"/>
		</g>
		<g>
			<path fill="#141414" d="M241.291,52.397c0,8.088-2.549,14.555-7.646,19.4c-5.097,4.843-12.069,7.266-20.915,7.266H196.68v33.111
				h-16.555v-87.2h32.605c8.846,0,15.818,2.443,20.915,7.329C238.742,37.189,241.291,43.888,241.291,52.397z M224.737,52.397
				c0-4.213-1.118-7.435-3.352-9.667s-5.37-3.35-9.414-3.35H196.68v25.149h15.292c3.959,0,7.077-1.052,9.353-3.159
				C223.599,59.263,224.737,56.272,224.737,52.397z"/>
			<path fill="#141414" d="M264.538,24.974v87.2h-16.556v-87.2H264.538z"/>
			<path fill="#141414" d="M340.866,112.174h-16.555l-32.101-54.469v54.469h-16.556v-87.2h16.556l32.101,54.594V24.974h16.555
				V112.174z"/>
			<path fill="#141414" d="M367.777,60.991h33.11v14.406h-33.11v22.37h38.798v14.407h-55.354v-87.2h55.354V39.38h-38.798V60.991z"/>
			<path fill="#141414" d="M444.608,24.974c9.689,0,17.335,2.696,22.939,8.088c5.601,5.393,8.403,14.238,8.403,26.54v17.818
				c0,12.301-2.865,21.168-8.594,26.602c-5.729,5.434-13.48,8.152-23.255,8.152h-30.203v-87.2H444.608z M455.668,92.838
				c2.484-3.286,3.728-8.467,3.728-15.545V60.485c0-7.414-1.222-12.785-3.664-16.114c-2.444-3.328-6.192-4.992-11.247-4.992h-14.028
				v58.387h14.028C449.454,97.767,453.183,96.124,455.668,92.838z"/>
			<path fill="#141414" d="M497.177,95.239l-5.309,16.935h-17.44l30.963-87.2h13.523l31.088,87.2h-17.566l-5.309-16.935H497.177z
				 M512.088,47.974L501.6,81.464h21.104L512.088,47.974z"/>
		</g>
	</g>
</g>
<g id="Layer_4" display="none">
</g>
<g id="Layer_3">
</g>
</svg>
